# Blender v2.80 (sub 75) OBJ File: ''
# www.blender.org
o Cube
v -1.000000 -1.000000 1.000000
v -1.000000 1.000000 1.000000
v -1.000000 -1.000000 -1.000000
v -1.000000 1.000000 -1.000000
v 1.000000 -1.000000 1.000000
v 1.000000 1.000000 1.000000
v 1.000000 -1.000000 -1.000000
v 1.000000 1.000000 -1.000000
vt 1.000000 0.000000
vt 0.000000 1.000000
vt 0.000000 0.000000
vt 1.000000 0.000000
vt 0.000000 1.000000
vt 0.000000 0.000000
vt 1.000000 0.000000
vt 0.000000 1.000000
vt 0.000000 0.000000
vt 1.000000 0.000000
vt 0.000000 1.000000
vt 0.000000 0.000000
vt 1.000000 0.000000
vt 0.000000 1.000000
vt 0.000000 0.000000
vt 1.000000 1.000000
vt 1.000000 1.000000
vt 1.000000 1.000000
vt 1.000000 1.000000
vt 1.000000 1.000000
vn -1.0000 0.0000 0.0000
vn 0.0000 0.0000 -1.0000
vn 1.0000 0.0000 0.0000
vn 0.0000 0.0000 1.0000
vn 0.0000 -1.0000 0.0000
vn 0.0000 1.0000 0.0000
s off
f 2/1/1 3/2/1 1/3/1
f 4/4/2 7/5/2 3/6/2
f 8/7/3 5/8/3 7/9/3
f 6/10/4 1/11/4 5/12/4
f 7/13/5 1/11/5 3/6/5
f 4/4/6 6/14/6 8/15/6
f 2/1/1 4/16/1 3/2/1
f 4/4/2 8/17/2 7/5/2
f 8/7/3 6/18/3 5/8/3
f 6/10/4 2/19/4 1/11/4
f 7/13/5 5/20/5 1/11/5
f 4/4/6 2/19/6 6/14/6
o BSP_Plane_Plane.001
v -8.418247 0.736549 0.947287
v -8.418247 -1.263451 0.947287
v -8.418247 0.736549 -1.052713
v -8.418247 -1.263451 -1.052713
vt 1.000000 0.000000
vt 0.000000 1.000000
vt 0.000000 0.000000
vt 1.000000 1.000000
vn 1.0000 0.0000 0.0000
s off
f 10/21/7 11/22/7 9/23/7
f 10/21/7 12/24/7 11/22/7
o BSP_Plane2_Plane.008
v 2.749790 1.014449 1.865760
v 2.749790 -0.985551 1.865760
v 2.749790 1.014449 -0.134240
v 2.749790 -0.985551 -0.134240
vt 1.000000 0.000000
vt 0.000000 1.000000
vt 0.000000 0.000000
vt 1.000000 1.000000
vn 1.0000 0.0000 0.0000
s off
f 14/25/8 15/26/8 13/27/8
f 14/25/8 16/28/8 15/26/8
o BSP_Plane1_Plane.000
v -2.021948 2.706022 0.775920
v -0.021948 2.706022 0.775920
v -2.021948 2.706022 -1.224080
v -0.021948 2.706022 -1.224080
vt 1.000000 0.000000
vt 0.000000 1.000000
vt 0.000000 0.000000
vt 1.000000 1.000000
vn 0.0000 1.0000 0.0000
s off
f 18/29/9 19/30/9 17/31/9
f 18/29/9 20/32/9 19/30/9
o Cube_001_Cube.003
v -7.863652 -0.928093 -0.004864
v -7.863652 1.071907 -0.004864
v -7.863652 -0.928093 -2.004864
v -7.863652 1.071907 -2.004864
v -5.863652 -0.928093 -0.004864
v -5.863652 1.071907 -0.004864
v -5.863652 -0.928093 -2.004864
v -5.863652 1.071907 -2.004864
vt 1.000000 0.000000
vt 0.000000 1.000000
vt 0.000000 0.000000
vt 1.000000 0.000000
vt 0.000000 1.000000
vt 0.000000 0.000000
vt 1.000000 0.000000
vt 0.000000 1.000000
vt 0.000000 0.000000
vt 1.000000 0.000000
vt 0.000000 1.000000
vt 0.000000 0.000000
vt 1.000000 0.000000
vt 0.000000 1.000000
vt 0.000000 0.000000
vt 1.000000 1.000000
vt 1.000000 1.000000
vt 1.000000 1.000000
vt 1.000000 1.000000
vt 1.000000 1.000000
vn -1.0000 0.0000 0.0000
vn 0.0000 0.0000 -1.0000
vn 1.0000 0.0000 0.0000
vn 0.0000 0.0000 1.0000
vn 0.0000 -1.0000 0.0000
vn 0.0000 1.0000 0.0000
s off
f 22/33/10 23/34/10 21/35/10
f 24/36/11 27/37/11 23/38/11
f 28/39/12 25/40/12 27/41/12
f 26/42/13 21/43/13 25/44/13
f 27/45/14 21/43/14 23/38/14
f 24/36/15 26/46/15 28/47/15
f 22/33/10 24/48/10 23/34/10
f 24/36/11 28/49/11 27/37/11
f 28/39/12 26/50/12 25/40/12
f 26/42/13 22/51/13 21/43/13
f 27/45/14 25/52/14 21/43/14
f 24/36/15 22/51/15 26/46/15
o Cube_004_Cube.001
v -9.644695 -0.337418 0.337418
v -9.644695 0.337418 0.337418
v -9.644695 -0.337418 -0.337418
v -9.644695 0.337418 -0.337418
v -8.969858 -0.337418 0.337418
v -8.969858 0.337418 0.337418
v -8.969858 -0.337418 -0.337418
v -8.969858 0.337418 -0.337418
vt 1.000000 0.000000
vt 0.000000 1.000000
vt 0.000000 0.000000
vt 1.000000 0.000000
vt 0.000000 1.000000
vt 0.000000 0.000000
vt 1.000000 0.000000
vt 0.000000 1.000000
vt 0.000000 0.000000
vt 1.000000 0.000000
vt 0.000000 1.000000
vt 0.000000 0.000000
vt 1.000000 0.000000
vt 0.000000 1.000000
vt 0.000000 0.000000
vt 1.000000 1.000000
vt 1.000000 1.000000
vt 1.000000 1.000000
vt 1.000000 1.000000
vt 1.000000 1.000000
vn -1.0000 0.0000 0.0000
vn 0.0000 0.0000 -1.0000
vn 1.0000 0.0000 0.0000
vn 0.0000 0.0000 1.0000
vn 0.0000 -1.0000 0.0000
vn 0.0000 1.0000 0.0000
s off
f 30/53/16 31/54/16 29/55/16
f 32/56/17 35/57/17 31/58/17
f 36/59/18 33/60/18 35/61/18
f 34/62/19 29/63/19 33/64/19
f 35/65/20 29/63/20 31/58/20
f 32/56/21 34/66/21 36/67/21
f 30/53/16 32/68/16 31/54/16
f 32/56/17 36/69/17 35/57/17
f 36/59/18 34/70/18 33/60/18
f 34/62/19 30/71/19 29/63/19
f 35/65/20 33/72/20 29/63/20
f 32/56/21 30/71/21 34/66/21
o Cube_005_Cube.006
v -10.881342 -0.168885 0.168884
v -10.881342 0.168885 0.168884
v -10.881342 -0.168885 -0.168885
v -10.881342 0.168885 -0.168885
v -10.543573 -0.168885 0.168884
v -10.543573 0.168885 0.168884
v -10.543573 -0.168885 -0.168885
v -10.543573 0.168885 -0.168885
vt 1.000000 0.000000
vt 0.000000 1.000000
vt 0.000000 0.000000
vt 1.000000 0.000000
vt 0.000000 1.000000
vt 0.000000 0.000000
vt 1.000000 0.000000
vt 0.000000 1.000000
vt 0.000000 0.000000
vt 1.000000 0.000000
vt 0.000000 1.000000
vt 0.000000 0.000000
vt 1.000000 0.000000
vt 0.000000 1.000000
vt 0.000000 0.000000
vt 1.000000 1.000000
vt 1.000000 1.000000
vt 1.000000 1.000000
vt 1.000000 1.000000
vt 1.000000 1.000000
vn -1.0000 0.0000 0.0000
vn 0.0000 0.0000 -1.0000
vn 1.0000 0.0000 0.0000
vn 0.0000 0.0000 1.0000
vn 0.0000 -1.0000 0.0000
vn 0.0000 1.0000 0.0000
s off
f 38/73/22 39/74/22 37/75/22
f 40/76/23 43/77/23 39/78/23
f 44/79/24 41/80/24 43/81/24
f 42/82/25 37/83/25 41/84/25
f 43/85/26 37/83/26 39/78/26
f 40/76/27 42/86/27 44/87/27
f 38/73/22 40/88/22 39/74/22
f 40/76/23 44/89/23 43/77/23
f 44/79/24 42/90/24 41/80/24
f 42/82/25 38/91/25 37/83/25
f 43/85/26 41/92/26 37/83/26
f 40/76/27 38/91/27 42/86/27
o Cube_002_Cube.004
v -1.221055 4.075719 -0.004864
v -1.221055 6.075719 -0.004864
v -1.221055 4.075719 -2.004864
v -1.221055 6.075719 -2.004864
v 0.778945 4.075719 -0.004864
v 0.778945 6.075719 -0.004864
v 0.778945 4.075719 -2.004864
v 0.778945 6.075719 -2.004864
vt 1.000000 0.000000
vt 0.000000 1.000000
vt 0.000000 0.000000
vt 1.000000 0.000000
vt 0.000000 1.000000
vt 0.000000 0.000000
vt 1.000000 0.000000
vt 0.000000 1.000000
vt 0.000000 0.000000
vt 1.000000 0.000000
vt 0.000000 1.000000
vt 0.000000 0.000000
vt 1.000000 0.000000
vt 0.000000 1.000000
vt 0.000000 0.000000
vt 1.000000 1.000000
vt 1.000000 1.000000
vt 1.000000 1.000000
vt 1.000000 1.000000
vt 1.000000 1.000000
vn -1.0000 0.0000 0.0000
vn 0.0000 0.0000 -1.0000
vn 1.0000 0.0000 0.0000
vn 0.0000 0.0000 1.0000
vn 0.0000 -1.0000 0.0000
vn 0.0000 1.0000 0.0000
s off
f 46/93/28 47/94/28 45/95/28
f 48/96/29 51/97/29 47/98/29
f 52/99/30 49/100/30 51/101/30
f 50/102/31 45/103/31 49/104/31
f 51/105/32 45/103/32 47/98/32
f 48/96/33 50/106/33 52/107/33
f 46/93/28 48/108/28 47/94/28
f 48/96/29 52/109/29 51/97/29
f 52/99/30 50/110/30 49/100/30
f 50/102/31 46/111/31 45/103/31
f 51/105/32 49/112/32 45/103/32
f 48/96/33 46/111/33 50/106/33
o Cube_003_Cube.005
v 7.072771 -2.153423 -0.004864
v 7.072771 -0.153423 -0.004864
v 7.072771 -2.153423 -2.004864
v 7.072771 -0.153423 -2.004864
v 9.072771 -2.153423 -0.004864
v 9.072771 -0.153423 -0.004864
v 9.072771 -2.153423 -2.004864
v 9.072771 -0.153423 -2.004864
vt 1.000000 0.000000
vt 0.000000 1.000000
vt 0.000000 0.000000
vt 1.000000 0.000000
vt 0.000000 1.000000
vt 0.000000 0.000000
vt 1.000000 0.000000
vt 0.000000 1.000000
vt 0.000000 0.000000
vt 1.000000 0.000000
vt 0.000000 1.000000
vt 0.000000 0.000000
vt 1.000000 0.000000
vt 0.000000 1.000000
vt 0.000000 0.000000
vt 1.000000 1.000000
vt 1.000000 1.000000
vt 1.000000 1.000000
vt 1.000000 1.000000
vt 1.000000 1.000000
vn -1.0000 0.0000 0.0000
vn 0.0000 0.0000 -1.0000
vn 1.0000 0.0000 0.0000
vn 0.0000 0.0000 1.0000
vn 0.0000 -1.0000 0.0000
vn 0.0000 1.0000 0.0000
s off
f 54/113/34 55/114/34 53/115/34
f 56/116/35 59/117/35 55/118/35
f 60/119/36 57/120/36 59/121/36
f 58/122/37 53/123/37 57/124/37
f 59/125/38 53/123/38 55/118/38
f 56/116/39 58/126/39 60/127/39
f 54/113/34 56/128/34 55/114/34
f 56/116/35 60/129/35 59/117/35
f 60/119/36 58/130/36 57/120/36
f 58/122/37 54/131/37 53/123/37
f 59/125/38 57/132/38 53/123/38
f 56/116/39 54/131/39 58/126/39
